<svg xmlns="http://www.w3.org/2000/svg" width="21" height="25" viewBox="61.212 358.5 21 25"><path d="M79.962 371H68.337v-5.034c0-1.934 1.486-3.54 3.343-3.56 1.875-.02 3.407 1.568 3.407 3.516v.781c0 .65-.12 5.636.186 5.636l3.252-.479c.624 0 .312-4.507.312-5.157v-.781c0-4.102-3.21-7.437-7.148-7.422-3.938.015-7.102 3.394-7.102 7.495V371h-1.125c-1.242 0-2.25 1.05-2.25 2.344v7.812c0 1.294 1.008 2.344 2.25 2.344h16.5c1.243 0 2.25-1.05 2.25-2.344v-7.812c0-1.294-1.007-2.344-2.25-2.344Z" fill="#1ecb96" fill-rule="evenodd" data-name="Icon awesome-unlock"/></svg>