<svg xmlns="http://www.w3.org/2000/svg" width="21.5" height="21.5" viewBox="20 560.205 21.5 21.5"><g data-name="Group 9"><path d="M20 570.905a10.75 10.75 0 1 1 0 .1z" fill="#d1f0e7" fill-rule="evenodd" data-name="Ellipse 218"/><path d="M25.46 573.217a5.695 5.695 0 0 0 2.621 2.792 5.856 5.856 0 0 0 3.83.535 5.78 5.78 0 0 0 3.31-1.963 5.59 5.59 0 0 0 1.3-3.576 5.59 5.59 0 0 0-1.3-3.577 5.78 5.78 0 0 0-3.31-1.963 5.856 5.856 0 0 0-3.83.535 5.695 5.695 0 0 0-2.621 2.793" stroke-linejoin="round" stroke-linecap="round" stroke="#1ecb96" fill="transparent" data-name="Vector"/><path d="m30.896 573.157 2.152-2.152-2.152-2.152M33.095 571.005h-8.09" stroke-linejoin="round" stroke-linecap="round" stroke="#1ecb96" fill="transparent" data-name="Vector"/></g></svg>